:SAMPLES-PER-SECOND 30
:FULLY-SPECIFIED
:DEGREES
1049
root  3.34916 41.0266 -2.32015 -178.393 -81.9155 175.04
RightUpLeg  2.08755 -8.02213 -5.97796
RightLeg  4.15213 -0.231791 2.84973
RightFoot  -1.11304 0.00405491 -0.135357
RightToes  -4.65663e-010 0 -3.6325e-017
Spine  7.61006 -0.800451 11.7705
Spine1  -0.487331 2.40225 -14.6756
HEad  -70.9747 -3.8525 -8.37469
LeftShoulder1  12.234 -16.9406 -52.2086
LeftArm  -5.86329 28.5124 -16.7407
LeftForeArm  26.9514 -30.2913 -5.10445
LeftHand  -0.244104 0.0205437 5.32207
RightShoulder  8.12373 12.5469 44.1664
RightArm  3.48751 -10.7716 31.5348
RightForeArm  0.813359 19.8496 5.30734
RightHand  -0.509205 -0.554286 -12.218
LeftUpLeg  6.99506 6.62033 5.65342
LeftLeg  -0.747701 16.0724 -4.53642
LeftFoot  -1.43399 0.148241 -1.62482
LeftToes  4.18335e-011 1.59304e-011 3.38507e-012
1050
root  3.36292 41.022 -2.2915 -178.259 -82.2105 174.783
RightUpLeg  2.20819 -8.09425 -6.07604
RightLeg  4.22991 -0.43257 2.85629
RightFoot  -1.1681 0.00108904 -0.111934
RightToes  -4.65663e-010 0 -3.6325e-017
Spine  7.50263 -0.630644 11.2494
Spine1  -0.234779 2.31855 -13.2868
HEad  -70.976 -4.26709 -2.9724
LeftShoulder1  12.3261 -16.9014 -52.6894
LeftArm  -5.45295 27.9025 -16.7426
LeftForeArm  26.8117 -30.299 -5.11402
LeftHand  -0.244104 0.0205437 5.32207
RightShoulder  7.94732 12.4851 43.3316
RightArm  2.86004 -10.6995 31.9809
RightForeArm  1.35521 19.8803 5.24958
RightHand  -0.49914 -0.570808 -12.0166
LeftUpLeg  6.95481 6.62394 5.61635
LeftLeg  -0.527989 15.7887 -4.47844
LeftFoot  -1.5239 0.142111 -1.54225
LeftToes  4.18335e-011 1.59304e-011 3.38507e-012
1051
root  3.38305 41.0163 -2.2643 -178.363 -82.5022 174.684
RightUpLeg  2.40537 -8.14142 -6.14853
RightLeg  4.3103 -0.641513 2.84804
RightFoot  -1.21561 -0.00241503 -0.0790293
RightToes  -4.65663e-010 0 -3.6325e-017
Spine  7.36177 -0.415149 10.5069
Spine1  0.339859 2.23933 -11.5724
HEad  -70.8126 -4.76239 2.6751
LeftShoulder1  12.4058 -16.8755 -53.0845
LeftArm  -4.74525 27.078 -16.8645
LeftForeArm  26.5131 -30.3839 -5.15045
LeftHand  -0.244104 0.0205437 5.32207
RightShoulder  7.68014 12.3388 42.1936
RightArm  1.32095 -10.5813 32.8377
RightForeArm  2.41884 19.8551 5.148
RightHand  -0.495433 -0.534815 -11.8424
LeftUpLeg  6.97525 6.66457 5.63284
LeftLeg  -0.262243 15.454 -4.42639
LeftFoot  -1.63645 0.133959 -1.43894
LeftToes  4.18335e-011 1.59304e-011 3.38507e-012
1052
root  3.4143 41.0101 -2.23597 -178.813 -82.8335 174.819
RightUpLeg  2.73911 -8.18126 -6.20448
RightLeg  4.34564 -0.89281 2.84175
RightFoot  -1.23289 -0.00680503 -0.0302446
RightToes  -4.65663e-010 0 -3.6325e-017
Spine  7.29832 -0.245203 9.66171
Spine1  1.14778 2.09611 -9.71598
HEad  -70.4747 -5.4199 8.22843
LeftShoulder1  12.4058 -16.8671 -53.1056
LeftArm  -4.00129 26.1222 -17.341
LeftForeArm  26.5075 -30.4278 -5.16106
LeftHand  -0.244104 0.0205437 5.32207
RightShoulder  7.33557 12.1515 40.675
RightArm  -0.742843 -10.3647 34.194
RightForeArm  3.63328 19.6804 5.05594
RightHand  -0.493538 -0.524817 -11.7736
LeftUpLeg  7.07424 6.70885 5.69308
LeftLeg  0.06151 15.0619 -4.33656
LeftFoot  -1.76939 0.12906 -1.39356
LeftToes  4.18335e-011 1.59304e-011 3.38507e-012
1053
root  3.4606 41.0029 -2.20276 -179.636 -83.2302 175.312
RightUpLeg  3.10539 -8.20315 -6.22171
RightLeg  4.31603 -1.23706 2.84444
RightFoot  -1.21003 -0.0124614 0.0413228
RightToes  -4.65663e-010 0 -3.6325e-017
Spine  7.28105 -0.161231 8.76468
Spine1  2.05726 1.83425 -7.80296
HEad  -69.7917 -6.34407 13.6372
LeftShoulder1  12.3302 -16.8695 -52.7865
LeftArm  -3.37483 25.1606 -18.1162
LeftForeArm  26.8371 -30.5007 -5.15993
LeftHand  -0.244104 0.0205437 5.32207
RightShoulder  6.93032 11.9552 38.7497
RightArm  -2.76605 -10.0135 36.0219
RightForeArm  4.86938 19.3284 4.99778
RightHand  -0.484465 -0.585369 -11.6974
LeftUpLeg  7.09639 6.73574 5.77022
LeftLeg  0.509019 14.6275 -4.16329
LeftFoot  -1.94251 0.128846 -1.41954
LeftToes  4.18335e-011 1.59304e-011 3.38507e-012
1054
root  3.51466 40.9963 -2.16499 179.395 -83.6566 176.079
RightUpLeg  3.34682 -8.19975 -6.19645
RightLeg  4.23927 -1.63992 2.85251
RightFoot  -1.1452 -0.0180265 0.115474
RightToes  -4.65663e-010 0 -3.6325e-017
Spine  7.12342 -0.0997115 7.7423
Spine1  3.0118 1.46059 -5.69564
HEad  -68.6832 -7.54393 18.8772
LeftShoulder1  12.2695 -16.8922 -52.477
LeftArm  -2.68504 24.2553 -18.8878
LeftForeArm  27.0998 -30.6577 -5.18231
LeftHand  -0.244104 0.0205437 5.32207
RightShoulder  6.45757 11.7152 36.4323
RightArm  -4.76305 -9.58542 38.2897
RightForeArm  6.15802 18.8065 4.96294
RightHand  -0.485881 -0.582387 -11.7243
LeftUpLeg  6.93056 6.74279 5.82901
LeftLeg  1.01414 14.1965 -3.95131
LeftFoot  -2.12837 0.129136 -1.44345
LeftToes  4.18335e-011 1.59304e-011 3.38507e-012
1055
root  3.5667 40.9928 -2.12754 178.652 -84.0699 176.757
RightUpLeg  3.43883 -8.2031 -6.17739
RightLeg  4.1631 -2.01791 2.87163
RightFoot  -1.05851 -0.0207196 0.147241
RightToes  -4.65663e-010 0 -3.6325e-017
Spine  6.76998 -0.0186272 6.56212
Spine1  3.94245 0.999626 -3.33966
HEad  -67.0606 -8.90947 23.6592
LeftShoulder1  12.2691 -16.957 -52.3138
LeftArm  -1.8416 23.4496 -19.5579
LeftForeArm  27.1258 -30.7815 -5.21007
LeftHand  -0.244104 0.0205437 5.32207
RightShoulder  5.93858 11.3954 33.9052
RightArm  -7.07335 -9.15885 40.8426
RightForeArm  7.52356 18.1363 4.92236
RightHand  -0.526192 -0.295948 -12.0066
LeftUpLeg  6.66762 6.74105 5.85455
LeftLeg  1.40996 13.7914 -3.80004
LeftFoot  -2.26196 0.126731 -1.42058
LeftToes  4.18335e-011 1.59304e-011 3.38507e-012
1056
root  3.61683 40.9921 -2.09115 178.241 -84.4492 177.132
RightUpLeg  3.48744 -8.24179 -6.20723
RightLeg  4.10376 -2.33026 2.90941
RightFoot  -0.97273 -0.0209948 0.14268
RightToes  -4.65663e-010 0 -3.6325e-017
Spine  6.40812 0.018207 5.39941
Spine1  4.70611 0.47956 -1.07186
HEad  -64.6185 -10.4197 27.7908
LeftShoulder1  12.2763 -17.0605 -52.0867
LeftArm  -0.965104 22.8238 -20.21
LeftForeArm  27.13 -30.8021 -5.2147
LeftHand  -0.244104 0.0205437 5.32207
RightShoulder  5.45729 11.0342 31.5903
RightArm  -9.59571 -8.72475 43.2813
RightForeArm  8.91188 17.3927 4.85319
RightHand  -0.598396 0.253155 -12.3704
LeftUpLeg  6.46652 6.74296 5.86076
LeftLeg  1.62729 13.4143 -3.74777
LeftFoot  -2.31831 0.123557 -1.38471
LeftToes  4.18335e-011 1.59304e-011 3.38507e-012
1057
root  3.6685 40.9924 -2.04766 177.958 -84.7554 177.349
RightUpLeg  3.55966 -8.29293 -6.2753
RightLeg  4.03128 -2.56753 2.94929
RightFoot  -0.881624 -0.0238148 0.178768
RightToes  -4.65663e-010 0 -3.6325e-017
Spine  6.16868 -0.0499638 4.50726
Spine1  5.2491 -0.0399156 0.678064
HEad  -60.9811 -12.2877 31.4166
LeftShoulder1  12.2638 -17.1812 -51.7373
LeftArm  -0.0646084 22.4242 -20.715
LeftForeArm  27.2449 -30.8886 -5.22879
LeftHand  -0.244104 0.0205437 5.32207
RightShoulder  5.08748 10.7152 29.8118
RightArm  -11.7529 -8.26619 45.2562
RightForeArm  10.0284 16.7479 4.7645
RightHand  -0.655012 0.693927 -12.5866
LeftUpLeg  6.35929 6.7467 5.85152
LeftLeg  1.74176 13.1104 -3.74847
LeftFoot  -2.33624 0.121219 -1.36086
LeftToes  4.18335e-011 1.59304e-011 3.38507e-012
1058
root  3.7183 40.9931 -1.99044 177.742 -84.933 177.501
RightUpLeg  3.61652 -8.31505 -6.35098
RightLeg  3.93157 -2.70619 2.95315
RightFoot  -0.763319 -0.0313947 0.289822
RightToes  -4.65663e-010 0 -3.6325e-017
Spine  5.8773 -0.200463 3.86466
Spine1  5.86108 -0.554014 1.98756
HEad  -56.1171 -14.6457 34.6302
LeftShoulder1  12.2631 -17.2519 -51.5616
LeftArm  0.877146 22.0775 -20.8253
LeftForeArm  27.3682 -31.2179 -5.30027
LeftHand  -0.244104 0.0205437 5.32207
RightShoulder  4.8081 10.4605 28.4319
RightArm  -13.0928 -7.70237 46.8196
RightForeArm  10.5731 16.3506 4.69488
RightHand  -0.664817 0.716842 -12.7269
LeftUpLeg  6.28237 6.75309 5.8085
LeftLeg  1.82464 12.9419 -3.7657
LeftFoot  -2.35367 0.116899 -1.3052
LeftToes  4.18335e-011 1.59304e-011 3.38507e-012
1059
root  3.76227 40.9939 -1.9268 177.762 -84.9768 177.445
RightUpLeg  3.61503 -8.30388 -6.42184
RightLeg  3.85003 -2.74392 2.90242
RightFoot  -0.630822 -0.0387355 0.398162
RightToes  -4.65663e-010 0 -3.6325e-017
Spine  5.24795 -0.405167 3.09831
Spine1  7.10876 -1.19938 3.42841
HEad  -50.3892 -17.2253 37.2339
LeftShoulder1  12.2584 -17.1244 -51.8549
LeftArm  1.58948 21.3725 -20.5067
LeftForeArm  27.4009 -31.6868 -5.41074
LeftHand  -0.244104 0.0205437 5.32207
RightShoulder  4.55538 10.2096 27.1841
RightArm  -13.5139 -6.67966 48.1216
RightForeArm  10.7677 16.121 4.6798
RightHand  -0.648442 0.482543 -12.8907
LeftUpLeg  6.21691 6.76863 5.73745
LeftLeg  1.87561 12.8897 -3.81816
LeftFoot  -2.3664 0.108378 -1.18332
LeftToes  4.18335e-011 1.59304e-011 3.38507e-012
1060
root  3.8025 40.9944 -1.8704 177.922 -84.9366 177.243
RightUpLeg  3.58541 -8.2839 -6.48224
RightLeg  3.82359 -2.72098 2.82731
RightFoot  -0.522279 -0.0411102 0.430348
RightToes  -4.65663e-010 0 -3.6325e-017
Spine  4.55743 -0.661865 2.2843
Spine1  8.48669 -1.88825 4.7065
HEad  -43.865 -20.1692 39.2253
LeftShoulder1  12.1784 -16.9189 -52.0311
LeftArm  1.75317 20.6766 -20.2716
LeftForeArm  27.478 -32.0222 -5.4875
LeftHand  -0.244104 0.0205437 5.32207
RightShoulder  4.39816 10.0351 26.4249
RightArm  -13.3188 -5.50395 48.9811
RightForeArm  11.0827 15.9411 4.70275
RightHand  -0.638577 0.3729 -12.9285
LeftUpLeg  6.1949 6.81064 5.68315
LeftLeg  1.89785 12.8829 -3.91001
LeftFoot  -2.3624 0.099271 -1.05139
LeftToes  4.18335e-011 1.59304e-011 3.38507e-012
1061
root  3.84023 40.9949 -1.82254 177.898 -84.8331 177.202
RightUpLeg  3.57099 -8.2707 -6.52956
RightLeg  3.80753 -2.64024 2.77858
RightFoot  -0.43349 -0.0415722 0.433712
RightToes  -4.65663e-010 0 -3.6325e-017
Spine  4.01523 -0.915979 1.65366
Spine1  9.56736 -2.4551 5.52971
HEad  -36.5963 -23.6757 40.3867
LeftShoulder1  12.0558 -16.7445 -51.953
LeftArm  1.57874 20.213 -20.2081
LeftForeArm  27.5112 -32.1358 -5.51324
LeftHand  -0.244104 0.0205437 5.32207
RightShoulder  4.34274 9.94469 26.2233
RightArm  -12.9746 -4.50176 49.3654
RightForeArm  11.6242 15.6826 4.74393
RightHand  -0.639608 0.462599 -12.7589
LeftUpLeg  6.21905 6.85752 5.65587
LeftLeg  1.90599 12.9422 -3.98966
LeftFoot  -2.34693 0.0944784 -0.985615
LeftToes  4.18335e-011 1.59304e-011 3.38507e-012
